REM DIRINDEX 1\2,1\3,1\4,1\5
REM DIRNAME folder01,folder02,folder03,folder04,folder05
TITLE ""
FILE "1Q_t_1590-1599.mp3" MP3
  TRACK 01 AUDIO
    TITLE "3:cjc004_5676"
    INDEX 01 00:00:00
  TRACK 02 AUDIO
    TITLE "0:"
    INDEX 01 00:01:03
  TRACK 03 AUDIO
    TITLE "4:cjc004_5677"
    INDEX 01 00:01:32
  TRACK 04 AUDIO
    TITLE "0:"
    INDEX 01 00:02:20
  TRACK 05 AUDIO
    TITLE "5:cjc004_5678"
    INDEX 01 00:02:45
  TRACK 06 AUDIO
    TITLE "0:"
    INDEX 01 00:06:41
  TRACK 07 AUDIO
    TITLE "3:cjc004_5679"
    INDEX 01 00:07:19
  TRACK 08 AUDIO
    TITLE "0:"
    INDEX 01 00:08:46
  TRACK 09 AUDIO
    TITLE "4:cjc004_5680"
    INDEX 01 00:09:02
  TRACK 10 AUDIO
    TITLE "0:"
    INDEX 01 00:11:27
  TRACK 11 AUDIO
    TITLE "5:cjc004_5681"
    INDEX 01 00:11:54
  TRACK 12 AUDIO
    TITLE "0:"
    INDEX 01 00:16:40
  TRACK 13 AUDIO
    TITLE "3:cjc004_5682"
    INDEX 01 00:17:21
  TRACK 14 AUDIO
    TITLE "0:"
    INDEX 01 00:18:23
  TRACK 15 AUDIO
    TITLE "4:cjc004_5683"
    INDEX 01 00:18:56
  TRACK 16 AUDIO
    TITLE "0:"
    INDEX 01 00:20:53
  TRACK 17 AUDIO
    TITLE "5:cjc004_5684"
    INDEX 01 00:21:09
  TRACK 18 AUDIO
    TITLE "0:"
    INDEX 01 00:26:03
  TRACK 19 AUDIO
    TITLE "3:cjc004_5685"
    INDEX 01 00:26:71
  TRACK 20 AUDIO
    TITLE "0:"
    INDEX 01 00:27:67
  TRACK 21 AUDIO
    TITLE "4:cjc004_5686"
    INDEX 01 00:28:23
  TRACK 22 AUDIO
    TITLE "0:"
    INDEX 01 00:29:40
  TRACK 23 AUDIO
    TITLE "5:cjc004_5687"
    INDEX 01 00:29:64
  TRACK 24 AUDIO
    TITLE "0:"
    INDEX 01 00:35:06
  TRACK 25 AUDIO
    TITLE "3:cjc004_5688"
    INDEX 01 00:35:55
  TRACK 26 AUDIO
    TITLE "0:"
    INDEX 01 00:36:72
  TRACK 27 AUDIO
    TITLE "4:cjc004_5689"
    INDEX 01 00:37:26
  TRACK 28 AUDIO
    TITLE "0:"
    INDEX 01 00:38:51
  TRACK 29 AUDIO
    TITLE "5:cjc004_5690"
    INDEX 01 00:39:07
  TRACK 30 AUDIO
    TITLE "0:"
    INDEX 01 00:43:72
  TRACK 31 AUDIO
    TITLE "3:cjc004_5691"
    INDEX 01 00:44:56
  TRACK 32 AUDIO
    TITLE "0:"
    INDEX 01 00:45:51
  TRACK 33 AUDIO
    TITLE "4:cjc004_5692"
    INDEX 01 00:46:00
  TRACK 34 AUDIO
    TITLE "0:"
    INDEX 01 00:47:36
  TRACK 35 AUDIO
    TITLE "5:cjc004_5693"
    INDEX 01 00:47:62
  TRACK 36 AUDIO
    TITLE "0:"
    INDEX 01 00:52:06
  TRACK 37 AUDIO
    TITLE "3:cjc004_5694"
    INDEX 01 00:52:59
  TRACK 38 AUDIO
    TITLE "0:"
    INDEX 01 00:53:62
  TRACK 39 AUDIO
    TITLE "4:cjc004_5695"
    INDEX 01 00:54:15
  TRACK 40 AUDIO
    TITLE "0:"
    INDEX 01 00:55:51
  TRACK 41 AUDIO
    TITLE "5:cjc004_5696"
    INDEX 01 00:55:71
  TRACK 42 AUDIO
    TITLE "0:"
    INDEX 01 01:00:25
  TRACK 43 AUDIO
    TITLE "3:cjc004_5697"
    INDEX 01 01:01:03
  TRACK 44 AUDIO
    TITLE "0:"
    INDEX 01 01:02:12
  TRACK 45 AUDIO
    TITLE "4:cjc004_5698"
    INDEX 01 01:02:38
  TRACK 46 AUDIO
    TITLE "0:"
    INDEX 01 01:03:51
  TRACK 47 AUDIO
    TITLE "5:cjc004_5699"
    INDEX 01 01:04:01
  TRACK 48 AUDIO
    TITLE "0:"
    INDEX 01 01:08:29
  TRACK 49 AUDIO
    TITLE "3:cjc004_5700"
    INDEX 01 01:09:03
  TRACK 50 AUDIO
    TITLE "0:"
    INDEX 01 01:10:00
  TRACK 51 AUDIO
    TITLE "4:cjc004_5701"
    INDEX 01 01:10:31
  TRACK 52 AUDIO
    TITLE "0:"
    INDEX 01 01:11:35
  TRACK 53 AUDIO
    TITLE "5:cjc004_5702"
    INDEX 01 01:11:66
  TRACK 54 AUDIO
    TITLE "0:"
    INDEX 01 01:16:34
  TRACK 55 AUDIO
    TITLE "3:cjc004_5703"
    INDEX 01 01:17:12
  TRACK 56 AUDIO
    TITLE "0:"
    INDEX 01 01:18:39
  TRACK 57 AUDIO
    TITLE "4:cjc004_5704"
    INDEX 01 01:18:68
  TRACK 58 AUDIO
    TITLE "0:"
    INDEX 01 01:20:44
  TRACK 59 AUDIO
    TITLE "5:cjc004_5705"
    INDEX 01 01:20:69
  TRACK 60 AUDIO
    TITLE "0:"
    INDEX 01 01:25:58
